<?xml version="1.0" encoding="UTF-8"?><svg width="150px" height="150px" viewBox="0 0 150 150" version="1.1" xmlns="http://www.w3.org/2000/svg"><circle id="Oval" fill="#E8C88E" cx="75" cy="75" r="75" /><path d="M39.831,85.171 L106.445,49.948 L103.551,44.477 L36.937,79.7Z" fill="#FFFFFF"/><path d="M101.928,46.819 L93.97,109.012 L100.11,109.799 L108.068,47.606Z" fill="#FFFFFF"/><path d="M98.462,106.657 L59.702,86.613 L56.858,92.111 L95.618,112.154Z" fill="#FFFFFF"/><path d="M59.297,86.44 L39.401,79.513 L37.367,85.358 L57.263,92.284Z" fill="#FFFFFF"/><path d="M60.354,91.66 L107.072,49.51 L102.925,44.915 L56.206,87.064Z" fill="#FFFFFF"/><path d="M55.412,90.523 L62.633,108.356 L68.369,106.033 L61.148,88.201Z" fill="#FFFFFF"/><path d="M68.307,108.5 L74.202,95.826 L68.59,93.214 L62.695,105.889Z" fill="#FFFFFF"/><path d="M38.384,79.34 L41.479,82.435 L38.384,85.53 L35.289,82.435Z" fill="#FFFFFF"/><path d="M104.998,44.118 L108.093,47.213 L104.998,50.307 L101.903,47.213Z" fill="#FFFFFF"/><path d="M97.04,106.31 L100.135,109.405 L97.04,112.5 L93.945,109.405Z" fill="#FFFFFF"/><path d="M58.28,86.267 L61.375,89.362 L58.28,92.457 L55.185,89.362Z" fill="#FFFFFF"/><path d="M65.501,104.1 L68.596,107.194 L65.501,110.289 L62.407,107.194Z" fill="#FFFFFF"/></svg>
