<svg width="512" height="512" viewBox="0 0 512 512" fill="none" xmlns="http://www.w3.org/2000/svg">
  <title>FASTER logo 02 warm linear paper plane</title>
  <desc>Round flat logo with a warm beige background and a white paper plane built from straight-line facets.</desc>

  <defs>
    <g id="mark-shape" transform="matrix(4.1481481 0 0 4.1481481 107.25926 99.555556)" fill="#FFFDFB">
      <path d="M10.982,43.956L56.182,20.056L54.218,16.344L9.018,40.244Z"/>
      <path d="M53.117,17.933L47.717,60.133L51.883,60.667L57.283,18.467Z"/>
      <path d="M50.765,58.535L24.465,44.935L22.535,48.665L48.835,62.265Z"/>
      <path d="M24.19,44.817L10.69,40.117L9.31,44.083L22.81,48.783Z"/>
      <path d="M24.907,48.359L56.607,19.759L53.793,16.641L22.093,45.241Z"/>
      <path d="M21.554,47.588L26.454,59.688L30.346,58.112L25.446,46.012Z"/>
      <path d="M30.304,59.786L34.304,51.186L30.496,49.414L26.496,58.014Z"/>
      <path d="M10,40L12.1,42.1L10,44.2L7.9,42.1Z"/>
      <path d="M55.2,16.1L57.3,18.2L55.2,20.3L53.1,18.2Z"/>
      <path d="M49.8,58.3L51.9,60.4L49.8,62.5L47.7,60.4Z"/>
      <path d="M23.5,44.7L25.6,46.8L23.5,48.9L21.4,46.8Z"/>
      <path d="M28.4,56.8L30.5,58.9L28.4,61L26.3,58.9Z"/>
    </g>
  </defs>

  <circle cx="256" cy="256" r="214" fill="#E8C88E"/>
  <circle cx="256" cy="256" r="214" stroke="#FFF8ED" stroke-width="12"/>

  <use href="#mark-shape"/>
</svg>
